<svg xmlns="http://www.w3.org/2000/svg" width="187" height="27" fill="none"><defs><clipPath id="a"><path fill="#fff" fill-opacity="0" d="M37 0H0v27h37z"/></clipPath></defs><path fill="none" d="M0 0h187v27H0z"/><path fill="none" d="M37 0H0v27h37z"/><g clip-path="url(#a)"><path fill="#FF862F" fill-rule="evenodd" d="M5.43 23.45c4.66 0 5.53-4.13 5.53-7.43h6.92c10.85 0 10.85-15.46.35-15.46-2.86 0-4.7 1.75-5.19 2.36-5.86 0-6.57 3.08-6.57 9.07v5.49c0 1.41-.57 2.32-2.08 2.32-1.29 0-1.91-1.15-2.42-2.77-.27.14-2.16 1.17-2.42 1.34.57 1.62 1.18 5.08 5.88 5.08Zm6.58-13.81c1.78 0 1.93 2.68-.12 2.68-1.73 0-1.69-2.68.12-2.68Zm6.22 8.05c-1.5 0-5.88-.33-5.88-.33v8.29l4.15.06 1.04-5.99 13.14-.25.35 6.57 4.84.06s.7-12.87.7-15.46c0-4.79-2.13-7.5-6.92-7.72-1.2-.06-2.77-.29-3.81-.34 4.51 5.53.92 15.11-7.61 15.11Zm8.3 3.36.35 4.87 2.77.06-.35-4.93h-2.77Zm-8.65 4.72 2.77.06.69-4.78h-2.42l-1.04 4.72Z"/></g><path fill="#A65CF0" fill-rule="evenodd" d="M69.68 7.5q0 .68-.28 1.21-.16.31-.42.57c-.47.47-1.25.71-2.32.71-.54 0-.99-.06-1.37-.18a2.75 2.75 0 0 1-.94-.53c-.22-.22-.39-.48-.5-.79q-.16-.46-.16-.99 0-.84.39-1.43.12-.2.3-.37.68-.7 2.28-.7c1.09 0 1.86.23 2.32.7q.2.19.35.43.35.57.35 1.37Zm98.14 14.19c.01-.89.01-1.78.01-2.67q0-2.65-.03-5.29c-.01-.88-.01-1.76-.01-2.65q0-2.65.03-5.32h5.54c.01 2.67.02 5.33.02 7.97v7.96h-5.56ZM54.79 6.07q1.48 0 3.07.33 1.6.31 2.98.97l-1.27 3.65q-.59-.2-1.28-.33c-.44-.1-.88-.18-1.32-.24-.42-.06-.84-.1-1.25-.11q-.59-.04-1.07-.04c-.37 0-.62.05-.78.17-.13.1-.2.26-.2.46 0 .21.23.38.71.53.47.13 1.07.28 1.8.44.33.07.69.16 1.09.26.41.11.82.24 1.23.4.41.16.81.37 1.21.62.39.25.74.55 1.04.92q.48.55.76 1.3.27.75.27 1.73c0 .68-.14 1.31-.41 1.9-.26.58-.7 1.1-1.32 1.54-.63.44-1.45.79-2.46 1.05q-1.53.38-3.78.38c-.4 0-.87-.03-1.42-.07a21.576 21.576 0 0 1-3.6-.62c-.63-.16-1.23-.36-1.79-.61l1.18-3.81c.71.22 1.4.4 2.05.53.67.12 1.28.21 1.82.26.56.06 1.05.1 1.46.11.41.02.72.03.93.03.49 0 .82-.07.98-.2.19-.13.28-.29.28-.49 0-.36-.44-.64-1.32-.83-.92-.22-1.78-.44-2.6-.66q-1.23-.33-2.17-.86c-.6-.35-1.09-.8-1.45-1.36q-.55-.84-.55-2.2c0-.7.11-1.36.34-1.98q.07-.18.16-.35.37-.73 1.05-1.3.84-.7 2.21-1.1 1.39-.42 3.42-.42Zm28.53 15.62V6.45h7.22c1.58 0 2.88.2 3.89.61q1.55.6 2.44 1.63c.59.69 1 1.5 1.23 2.42.24.92.36 1.9.36 2.92 0 1-.13 1.96-.41 2.88-.27.93-.72 1.74-1.34 2.45-.62.7-1.44 1.26-2.46 1.69-1 .42-2.24.64-3.71.64h-7.22Zm83.16-10.21c0 .69-.13 1.34-.39 1.96-.24.6-.62 1.13-1.12 1.58-.5.46-1.11.82-1.84 1.08-.73.27-1.57.4-2.53.4h-1.96v5.19h-5.74V6.45h7.33c1.19 0 2.18.13 2.99.39.8.27 1.44.63 1.91 1.08.49.45.83.99 1.03 1.61.21.61.32 1.26.32 1.95ZM78.05 7.35v3.39h3.05v3.29h-3.05v2.49c0 .34.02.61.06.81.07.21.15.36.26.46.12.11.27.17.45.2s.4.05.66.05c.11 0 .32-.02.64-.05.32-.03.67-.07 1.05-.13l.59 3.45c-.3.12-.63.22-.98.31-.33.07-.68.14-1.03.2-.33.06-.66.09-1 .11-.32.03-.6.04-.84.04q-1.87 0-2.94-.41c-.71-.28-1.25-.63-1.62-1.04-.35-.42-.57-.88-.66-1.36-.09-.49-.13-.93-.13-1.34v-3.79h-1.51v-2.92l1.92-.55c.19-.48.39-.98.59-1.47q.29-.75.57-1.48l3.92-.26Zm11.01 2.79v7.81h1.07c.48 0 .88-.1 1.18-.31.32-.22.56-.51.73-.86.18-.36.3-.78.37-1.25s.11-.96.11-1.47c0-.53-.04-1.03-.11-1.5-.08-.48-.22-.9-.41-1.25-.19-.36-.44-.63-.78-.84-.33-.22-.76-.33-1.27-.33h-.89Zm69.58 0v2.79h.71c.42 0 .75-.11.98-.35.24-.23.36-.56.36-.99 0-.55-.14-.94-.41-1.14-.27-.21-.63-.31-1.07-.31h-.57Zm22.64.29c.82 0 1.66.08 2.53.24.86.15 1.68.39 2.46.72l-.96 3.04a12.353 12.353 0 0 0-3.69-.59c-.23 0-.39.03-.48.08-.09.06-.14.16-.14.29 0 .07.13.15.39.22.26.06.57.12.94.2.45.07.95.18 1.5.33.55.13 1.05.33 1.53.61.47.28.85.66 1.16 1.12q.48.69.48 1.76c0 .49-.11.94-.32 1.37-.22.42-.58.8-1.1 1.12-.5.31-1.17.56-2 .75-.84.17-1.87.26-3.1.26a16.077 16.077 0 0 1-2.53-.2 24.3 24.3 0 0 1-1.55-.28c-.51-.13-1.01-.3-1.48-.49l.91-3.16c1.26.35 2.25.56 2.96.63.72.06 1.24.09 1.58.09.25 0 .47-.01.63-.04.17-.05.26-.13.26-.24 0-.11-.05-.19-.14-.25-.09-.05-.21-.1-.34-.13a4.46 4.46 0 0 0-.46-.11c-.15-.03-.29-.06-.43-.09-.56-.13-1.12-.27-1.66-.41-.54-.15-1.01-.35-1.44-.6-.41-.25-.74-.56-1-.94-.26-.4-.39-.91-.39-1.54 0-.52.1-1 .3-1.45.19-.46.52-.85.98-1.19.45-.35 1.05-.62 1.8-.81.76-.21 1.69-.31 2.8-.31Zm-38.5 1.47c.69-.5 1.39-.86 2.12-1.1.74-.23 1.39-.35 1.94-.35 1.39 0 2.39.35 2.98 1.05.59.69.89 1.72.89 3.08v7.11h-5.58v-6.07c0-.43-.09-.72-.25-.88-.15-.16-.4-.24-.75-.24-.14 0-.32.03-.53.08-.21.06-.42.16-.64.31v6.8h-5.6q.01-1.38.01-2.75t-.01-2.73q-.01-1.37-.01-2.74v-.01q0-1.37.01-2.75h5.15l.11 1.12.16.07Zm-29.06 4.29c0 .85-.13 1.63-.39 2.33-.26.7-.67 1.31-1.23 1.83-.54.49-1.25.88-2.12 1.16q-1.3.42-3.14.42c-1.25 0-2.3-.14-3.17-.42-.86-.28-1.57-.67-2.11-1.16-.55-.52-.95-1.13-1.21-1.83-.25-.7-.37-1.48-.37-2.33 0-.84.12-1.61.37-2.31.26-.7.66-1.3 1.21-1.8.56-.5 1.27-.89 2.14-1.17q1.3-.42 3.14-.42c1.23 0 2.28.14 3.14.42.88.28 1.6.67 2.14 1.17q.37.33.65.72.35.49.56 1.08c.26.7.39 1.47.39 2.31Zm-49.82 5.5q.01-1.38.01-2.75t-.01-2.73-.01-2.73q0-1.37.01-2.74h5.56q-.01 1.37-.01 2.74t.01 2.73.01 2.73q0 1.37-.01 2.75H63.9Zm65.57-3.79.39-3.14.73-4h5.33c-.41 1.84-.85 3.67-1.3 5.47-.44 1.81-.87 3.62-1.3 5.46h-6.74l-.8-4.03-.39-3.01h-.18l-.34 2.99-.75 4.05h-6.7q-.66-2.75-1.37-5.43c-.47-1.79-.92-3.63-1.34-5.5h5.44l.73 4.09.39 3.14h.14l.47-3.16.87-4.07h5.24l.84 4.02.48 3.12h.16Zm-21.45-1.71c0-.72-.08-1.24-.25-1.56-.16-.34-.47-.51-.93-.51-.46 0-.77.19-.93.57-.17.38-.25.88-.25 1.5 0 .78.08 1.33.25 1.67.16.34.47.51.93.51.46 0 .77-.17.93-.51.17-.34.25-.89.25-1.67Z"/></svg>